<?xml version="1.0" encoding="UTF-8"?>
<svg width="29px" height="18px" viewBox="0 0 29 18" version="1.1" xmlns="http://www.w3.org/2000/svg" xmlns:xlink="http://www.w3.org/1999/xlink">
    <!-- Generator: Sketch 62 (91390) - https://sketch.com -->
    <title>behance</title>
    <desc>Created with Sketch.</desc>
    <g id="Page-1" stroke="none" stroke-width="1" fill="none" fill-rule="evenodd">
        <g id="Project-Page-Copy-4" transform="translate(-661.000000, -1194.000000)" fill="#FFFFFF" fill-rule="nonzero">
            <path d="M687.583046,1196.4 L679.124804,1196.4 L679.124804,1194 L687.583046,1194 L687.583046,1196.4 Z M689.668607,1208.4 C689.13453,1209.9564 687.216925,1212 683.504965,1212 C679.790589,1212 676.781871,1209.9252 676.781871,1205.19 C676.781871,1200.498 679.591216,1198.086 683.38655,1198.086 C687.110593,1198.086 689.384652,1200.2244 689.881271,1203.3972 C689.97552,1204.0044 690.012978,1204.8228 689.996062,1205.9652 L680.296875,1205.9652 C680.453957,1209.8184 684.505454,1209.9396 685.840648,1208.4 L689.668607,1208.4 Z M680.381457,1203.6 L686.380768,1203.6 C686.253894,1201.7436 685.008116,1200.9372 683.387758,1200.9372 C681.616361,1200.9372 680.636413,1201.8588 680.381457,1203.6 Z M668.812999,1211.9856 L661,1211.9856 L661,1194.0252 L669.401451,1194.0252 C676.018213,1194.1224 676.143878,1200.558 672.688082,1202.3124 C676.870079,1203.8244 677.010244,1211.9856 668.812999,1211.9856 Z M664.624961,1201.2 L668.955581,1201.2 C671.986048,1201.2 672.46696,1197.6 668.578585,1197.6 L664.624961,1197.6 L664.624961,1201.2 Z M668.722375,1204.8 L664.624961,1204.8 L664.624961,1208.4192 L668.661959,1208.4192 C672.353377,1208.4192 672.127422,1204.8 668.722375,1204.8 L668.722375,1204.8 Z" id="behance"></path>
        </g>
    </g>
</svg>