<?xml version="1.0" encoding="UTF-8"?>
<svg width="27px" height="27px" viewBox="0 0 27 27" version="1.1" xmlns="http://www.w3.org/2000/svg" xmlns:xlink="http://www.w3.org/1999/xlink">
    <!-- Generator: Sketch 62 (91390) - https://sketch.com -->
    <title>dribbble</title>
    <desc>Created with Sketch.</desc>
    <g id="Page-1" stroke="none" stroke-width="1" fill="none" fill-rule="evenodd">
        <g id="Project-Page-Copy-4" transform="translate(-706.000000, -1233.000000)" fill="#FFFFFF" fill-rule="nonzero">
            <path d="M729.54211,1237.48776 L729.35257,1237.2813 C726.88738,1234.64835 723.38287,1233 719.5,1233 C717.95506,1233 716.47024,1233.26163 715.08658,1233.7416 L714.946,1233.79119 C710.42692,1235.41551 707.01727,1239.38541 706.1926,1244.22561 C706.19161,1244.2302 706.19017,1244.23461 706.18927,1244.2392 C706.1863,1244.25459 706.18513,1244.26989 706.1827,1244.28528 C706.06318,1245.00618 706,1245.7458 706,1246.5 C706,1249.7184 707.13274,1252.67688 709.01959,1254.99915 C709.02049,1255.0005 709.17673,1255.18896 709.17673,1255.18896 C711.65515,1258.12872 715.36288,1260 719.5,1260 C721.06339,1260 722.56522,1259.73198 723.96292,1259.24094 C723.99973,1259.2296 724.03591,1259.217 724.07128,1259.20269 C728.50549,1257.60204 731.86816,1253.74212 732.76321,1249.01937 C732.76555,1249.00785 732.76789,1248.99642 732.76987,1248.9849 C732.92035,1248.17913 733,1247.34879 733,1246.5 C733,1243.0395 731.69068,1239.87942 729.54211,1237.48776 Z M719.473554,1235.53125 C722.23914,1235.53125 724.764114,1236.60758 726.671875,1238.37291 C725.335878,1240.25035 723.46792,1241.48493 721.421925,1242.28125 C721.080821,1241.46433 720.740165,1240.72391 720.413584,1240.06396 C719.466831,1238.15112 718.537379,1236.68546 717.8125,1235.66284 C718.354142,1235.5764 718.908694,1235.53125 719.473554,1235.53125 Z M714.871645,1236.375 C715.678855,1237.41175 717.210182,1239.61319 718.65625,1242.98379 C714.859285,1243.82083 710.965783,1243.54333 708.953125,1243.29782 C709.863639,1240.21121 712.046183,1237.68749 714.871645,1236.375 Z M708.53125,1246.53667 C708.53125,1246.38487 708.535274,1246.23406 708.541534,1246.08377 C709.610593,1246.21687 711.195805,1246.36137 713.044101,1246.36137 C713.939053,1246.36137 714.895885,1246.32745 715.884732,1246.24198 C717.202746,1246.12802 718.445287,1245.93109 719.610476,1245.65625 C719.866675,1246.37428 720.113037,1247.13228 720.34375,1247.93186 C719.135011,1248.28193 717.886658,1248.71924 716.599852,1249.24461 C713.825485,1250.37707 711.563336,1251.64469 710.300496,1252.40625 C709.18288,1250.72046 708.53125,1248.70304 708.53125,1246.53667 Z M719.425118,1257.46875 C716.69806,1257.46875 714.208437,1256.41596 712.328125,1254.68939 C714.096345,1253.63301 717.41593,1251.83234 721.142105,1250.71875 C721.557528,1252.66249 721.872165,1254.80318 722.03125,1257.13878 C721.197312,1257.35397 720.324156,1257.46875 719.425118,1257.46875 Z M724.626831,1255.78125 C724.437898,1253.61599 724.118765,1251.61968 723.71875,1249.79714 C725.699187,1249.42855 727.718092,1249.31888 729.625,1249.65318 C728.793945,1252.27029 726.984238,1254.45622 724.626831,1255.78125 Z M730.451419,1247.16955 C728.268016,1246.78571 725.860137,1246.8448 723.245389,1247.34375 C722.994506,1246.47075 722.72785,1245.64787 722.453125,1244.87384 C725.034862,1243.89751 727.124092,1242.45958 728.657179,1240.59375 C729.801652,1242.30894 730.46875,1244.36129 730.46875,1246.56501 C730.46875,1246.76785 730.462698,1246.96933 730.451419,1247.16955 Z" id="dribbble"></path>
        </g>
    </g>
</svg>