<svg width="512" height="512" viewBox="0 0 512 512" fill="none" xmlns="http://www.w3.org/2000/svg">
<rect width="512" height="512" rx="30" fill="white"/>
<path fill-rule="evenodd" clip-rule="evenodd" d="M101.095 283.5L89.2548 271.57C73.7246 256.038 65 234.974 65 213.01C65 191.046 73.7246 169.982 89.2548 154.45L101.095 142.53L171.585 212.93L101.185 283.49H101.095V283.5ZM411.195 283.5L340.795 213L411.195 142.52L423.125 154.44C438.653 169.973 447.376 191.037 447.376 213C447.376 234.963 438.653 256.027 423.125 271.56L411.285 283.5H411.195ZM178.705 205.97L108.225 135.4L178.625 65L249.105 135.4L178.705 205.97V205.97ZM333.755 205.97L263.275 135.4L333.675 65L404.155 135.4L333.755 205.97V205.97ZM256.235 283.5L185.735 213L256.135 142.52L326.625 212.92L256.225 283.48L256.235 283.5Z" fill="#B3B3B3"/>
<path fill-rule="evenodd" clip-rule="evenodd" d="M101.095 438.55L89.2548 426.62C73.7271 411.087 65.0042 390.023 65.0042 368.06C65.0042 346.097 73.7271 325.033 89.2548 309.5L101.095 297.58L171.585 367.98L101.185 438.55H101.095V438.55ZM411.195 438.55L340.795 368.06L411.195 297.58L423.125 309.5C438.655 325.032 447.38 346.096 447.38 368.06C447.38 390.024 438.655 411.088 423.125 426.62L411.285 438.55H411.195V438.55ZM178.705 361.02L108.225 290.54L178.625 220.14L249.105 290.54L178.705 361.02V361.02ZM333.755 361.02L263.275 290.54L333.675 220.14L404.155 290.54L333.755 361.02V361.02ZM256.235 438.55L185.745 368.06L256.145 297.58L326.635 367.98L256.235 438.55V438.55Z" fill="black"/>
</svg>
