<?xml version="1.0" encoding="UTF-8"?>
<svg width="25px" height="25px" viewBox="0 0 25 25" version="1.1" xmlns="http://www.w3.org/2000/svg" xmlns:xlink="http://www.w3.org/1999/xlink">
    <!-- Generator: Sketch 62 (91390) - https://sketch.com -->
    <title>linkedin</title>
    <desc>Created with Sketch.</desc>
    <g id="Page-1" stroke="none" stroke-width="1" fill="none" fill-rule="evenodd">
        <g id="Project-Page-Copy-4" transform="translate(-752.000000, -1190.000000)" fill="#FFFFFF" fill-rule="nonzero">
            <path d="M755.002187,1196.01562 C753.341252,1196.01562 752,1194.66408 752,1193.00781 C752,1191.35155 753.341252,1190 755.002187,1190 C756.655355,1190 758.004374,1191.35155 758.004374,1193.00781 C758.004374,1194.67186 756.663122,1196.01562 755.002187,1196.01562 Z M766.020588,1215 L760.84276,1215 L760.84276,1198.29689 L765.81003,1198.29689 L765.81003,1200.57816 L765.880241,1200.57816 C766.574208,1199.26559 768.266365,1197.88284 770.785068,1197.88284 C776.025264,1197.88284 777,1201.34377 777,1205.84373 L777,1215 L771.822248,1215 L771.821791,1206.61365 C771.813622,1204.72091 771.665424,1202.4453 769.131976,1202.4453 C766.433861,1202.4453 766.020588,1204.55467 766.020588,1206.73439 L766.020588,1215 Z M757.598869,1215 L752.413273,1215 L752.413273,1198.29689 L757.598869,1198.29689 L757.598869,1215 Z" id="linkedin"></path>
        </g>
    </g>
</svg>